<?xml version="1.0" encoding="UTF-8" standalone="no"?>
<svg
   xmlns:dc="http://purl.org/dc/elements/1.1/"
   xmlns:cc="http://creativecommons.org/ns#"
   xmlns:rdf="http://www.w3.org/1999/02/22-rdf-syntax-ns#"
   xmlns:svg="http://www.w3.org/2000/svg"
   xmlns="http://www.w3.org/2000/svg"
   viewBox="0 0 862.08996 251.17245"
   height="251.17245"
   width="862.08997"
   xml:space="preserve"
   id="svg3986"
   version="1.1"><metadata
     id="metadata3992"><rdf:RDF><cc:Work
         rdf:about=""><dc:format>image/svg+xml</dc:format><dc:type
           rdf:resource="http://purl.org/dc/dcmitype/StillImage" /><dc:title></dc:title></cc:Work></rdf:RDF></metadata><defs
     id="defs3990"><clipPath
       id="clipPath4002"
       clipPathUnits="userSpaceOnUse"><path
         id="path4000"
         d="M 0,566.929 H 566.929 V 0 H 0 Z" /></clipPath></defs><g
     transform="matrix(1.3333333,0,0,-1.3333333,-4.288613,750.77522)"
     id="g3994"><g
       transform="matrix(0.99943972,0,0,0.99943972,-176.9071,14.365653)"
       id="g3996"><g
         transform="translate(141.73225,225.81071)"
         clip-path="url(#clipPath4002)"
         id="g3998"><g
           transform="translate(64.7588,198.7348)"
           id="g4004"><path
             id="path4006"
             style="fill:#0b3746;fill-opacity:1;fill-rule:nonzero;stroke:none;stroke-width:1.46427178"
             d="m 9.2065206,27.963738 c -1.8244843,0 -3.1906468,0.518353 -4.1014264,1.555059 -0.9122442,1.03817 -1.3661664,2.373612 -1.3661664,4.007715 v 25.266015 c 0,1.697091 -0.4568544,3.063258 -1.3661667,4.099956 -0.9122414,1.036704 -2.27987365,1.555046 -4.1014261,1.555046 -1.8859828,0 -3.2697216,-0.518342 -4.1482762,-1.555046 -0.880031,-1.036698 -1.3207671,-2.402865 -1.3207671,-4.099956 0,-5.720913 0.3309191,-10.873677 0.9913057,-15.461239 0.6589182,-4.58903 1.5550502,-8.831036 2.6869306,-12.725997 1.1304189,-3.897896 2.4043359,-7.574676 3.81882231,-11.030367 C 1.7123735,16.116323 3.1400392,12.676736 4.5867414,9.2518044 6.0334389,5.8254011 7.462566,2.3214125 8.8755902,-1.2616882 10.290079,-4.8432829 11.56399,-8.7396991 12.69442,-12.949489 c 1.130414,-4.212711 2.028015,-8.832492 2.686932,-13.859344 0.660389,-5.029773 0.99132,-10.684801 0.99132,-16.969441 0,-2.514145 -0.424648,-4.760374 -1.273925,-6.741522 -0.847814,-1.978235 -2.074872,-3.67531 -3.675319,-5.0898 -1.6048466,-1.414479 -3.5215785,-2.49803 -5.7531252,-3.252161 -2.2300865,-0.755572 -4.69738665,-1.130412 -7.3989678,-1.130412 -5.720915,0 -10.167918,1.446705 -13.340975,4.33571 -3.174556,2.890488 -4.76036,6.848399 -4.76036,11.878185 v 28.847603 c 0,0.566699 0.155207,1.036715 0.471512,1.41451 0.314812,0.37778 0.784851,0.566672 1.414476,0.566672 h 5.278686 c 1.82301,0 3.1891903,-0.519836 4.1014561,-1.557988 0.9092895,-1.036716 1.3661616,-2.372113 1.3661616,-4.004792 v -25.266005 c 0,-1.697093 0.4553866,-3.064751 1.3676201,-4.101436 0.9107716,-1.036702 2.2783995,-1.555058 4.1014232,-1.555058 1.88451521,0 3.2667913,0.518356 4.1482839,1.555058 0.8785616,1.036685 1.3193089,2.404343 1.3193089,4.101436 0,8.04471 -0.5827812,15.084917 -1.7454131,21.11773 -1.16263094,6.032793 -2.62397702,11.515019 -4.3825678,16.4496307 -1.7615186,4.9331365 -3.6460269,9.617339 -5.6564705,14.0482264 -2.0119234,4.4294209 -3.8964504,9.0975349 -5.6579534,13.9984359 -1.758586,4.903856 -3.219937,10.307027 -4.382576,16.215373 -1.162604,5.908335 -1.743947,12.822607 -1.743947,20.741405 0,2.514154 0.424655,4.761813 1.272459,6.740064 0.849271,1.97968 2.074876,3.676773 3.676791,5.091252 1.603362,1.414463 3.502522,2.49808 5.7033244,3.250653 2.1993514,0.755554 4.6812838,1.133338 7.4487606,1.133338 5.7179848,0 10.1649741,-1.446637 13.339525,-4.337118 3.173068,-2.893419 4.761812,-6.851365 4.761812,-11.878189 V 29.944899 c 0,-0.566667 -0.158144,-1.036697 -0.47297,-1.414482 -0.314814,-0.377775 -0.786304,-0.566679 -1.414482,-0.566679 z" /></g><g
           transform="translate(120.3193,229.8325)"
           id="g4008"><path
             id="path4010"
             style="fill:#0b3746;fill-opacity:1;fill-rule:nonzero;stroke:none;stroke-width:1.45611608"
             d="m 8.427674,41.113754 c 0.5635177,0 1.0309329,-0.157255 1.408058,-0.468866 0.374237,-0.314507 0.562059,-0.781925 0.562059,-1.406597 v -3.18746 c 0,-1.626455 -0.4382735,-2.938422 -1.31341,-3.938791 C 8.2092545,31.113161 7.0530978,30.613694 5.6159107,30.613694 h -11.530989 v -50.53015 H 6.5536498 c 0.5635175,0 1.0309309,-0.157275 1.406611,-0.468868 0.3742206,-0.313085 0.5620594,-0.781957 0.5620594,-1.406631 v -3.188874 c 0,-1.625039 -0.4382915,-2.936987 -1.3119617,-3.935886 -0.8751253,-1.000368 -2.031283,-1.499801 -3.4684682,-1.499801 h -9.6569686 v -49.219673 h 11.530989 c 1.4371871,0 2.5933438,-0.500908 3.4684703,-1.499802 0.8751365,-1.000349 1.31341,-2.312315 1.31341,-3.935887 v -3.188893 c 0,-0.624672 -0.187822,-1.093544 -0.562059,-1.405156 -0.3771251,-0.313066 -0.8445403,-0.470322 -1.408058,-0.470322 h -25.030656 c -0.624674,0 -1.09354,0.189296 -1.405152,0.563518 -0.314516,0.375676 -0.468866,0.843088 -0.468866,1.406605 V 39.145087 c 0,0.562065 0.15435,1.030934 0.468866,1.406624 0.311612,0.37422 0.780478,0.562043 1.405152,0.562043 z" /></g><g
           transform="translate(168.1558,175.3002)"
           id="g4012"><path
             id="path4014"
             style="fill:#0b3746;fill-opacity:1;fill-rule:nonzero;stroke:none;stroke-width:1.46425593"
             d="m 7.4721991,17.008302 c 0,1.632646 0.4392768,2.968047 1.3192946,4.00474 0.8800178,1.038158 2.1993123,1.588718 3.9608123,1.650217 h 5.467532 c 0.626701,0 1.099656,-0.187425 1.414471,-0.565203 0.313351,-0.376314 0.47149,-0.849268 0.47149,-1.414471 v -41.103128 c 0,-5.028255 -1.587253,-8.986139 -4.76176,-11.878044 -3.173043,-2.888977 -7.6214521,-4.335662 -13.3379073,-4.335662 -2.76744367,0 -5.2493575,0.376314 -7.4486699,1.13187 -2.2007766,0.752627 -4.0999165,1.837641 -5.7032768,3.250648 -1.60336,1.414471 -2.827478,3.111544 -3.678211,5.091218 -0.847804,1.979674 -1.270974,4.227307 -1.270974,6.73997 V 82.15012 c 0,5.028255 1.585789,8.986139 4.760296,11.879508 3.1730426,2.888977 7.6199878,4.337126 13.3408357,4.337126 2.7000879,0 5.1673592,-0.377778 7.3988852,-1.133334 2.2315261,-0.754092 4.1482371,-1.837641 5.7515971,-3.252112 1.601896,-1.413007 2.828943,-3.111544 3.675283,-5.089754 0.849268,-1.979674 1.273902,-4.227307 1.273902,-6.741434 V 39.918051 c 0,-0.566667 -0.158139,-1.038158 -0.47149,-1.414472 -0.314815,-0.379242 -0.78777,-0.566667 -1.414471,-0.566667 h -5.280107 c -1.822999,0 -3.190614,0.516883 -4.0999169,1.553576 -0.9122314,1.036693 -1.367615,2.373559 -1.367615,4.009133 V 82.15012 c 0,1.697073 -0.4392768,3.064688 -1.3178303,4.101381 -0.8829464,1.036693 -2.2637397,1.55504 -4.1482371,1.55504 -1.82446285,0 -3.1920779,-0.518347 -4.1013808,-1.55504 -0.9122315,-1.036693 -1.367615,-2.404308 -1.367615,-4.101381 V -20.419543 c 0,-1.697073 0.4392767,-3.063224 1.3207588,-4.099917 0.8785535,-1.036693 2.26081114,-1.556504 4.148237,-1.556504 1.8215344,0 3.1891494,0.519811 4.0999166,1.556504 0.9093029,1.036693 1.3661508,2.402844 1.3661508,4.099917 z" /></g><g
           transform="translate(233.6968,149.7397)"
           id="g4016"><path
             id="path4018"
             style="fill:#0b3746;fill-opacity:1;fill-rule:nonzero;stroke:none;stroke-width:1.46425593"
             d="m 10.899996,5.1416889 c 0,-5.02971913 -1.5872537,-8.9876029 -4.7602957,-11.8780441 -3.174507,-2.8889769 -7.622917,-4.3356618 -13.339372,-4.3356618 -2.767444,0 -5.2493573,0.376314 -7.4486703,1.1304056 -2.200776,0.7540918 -4.099916,1.8376412 -5.703276,3.2521124 -1.60336,1.4144712 -2.827478,3.1115438 -3.676747,5.0897536 -0.849268,1.98113826 -1.272438,4.2273068 -1.272438,6.7414343 V 120.43866 c 0,0.56521 0.155211,1.0367 0.47149,1.41447 0.313351,0.37632 0.784841,0.56521 1.413007,0.56521 h 5.278643 c 1.635573,0 2.954868,-0.44074 3.962276,-1.32223 1.003015,-0.87855 1.506719,-2.04117 1.506719,-3.48639 V 5.1416889 c 0,-1.6970726 0.439277,-3.0646877 1.320759,-4.1013809 0.878554,-1.03669317 2.2622753,-1.55503976 4.1482373,-1.55503976 1.821534,0 3.189149,0.51834659 4.099917,1.55503976 0.909303,1.0366932 1.36615,2.4043083 1.36615,4.1013809 V 117.60972 c 0,1.44522 0.503704,2.60784 1.50964804,3.48639 1.00448,0.88149 2.32377396,1.32223 3.95788396,1.32223 h 5.280107 c 0.626701,0 1.0996557,-0.18889 1.4144707,-0.56521 0.313351,-0.37777 0.471491,-0.84926 0.471491,-1.41447 z" /></g><g
           transform="translate(274.5142,222.6215)"
           id="g4020"><path
             id="path4022"
             style="fill:#0b3746;fill-opacity:1;fill-rule:nonzero;stroke:none;stroke-width:1.46425593"
             d="M 0.59761238,37.550562 V -18.446977 H 6.0651444 c 1.8844973,0 3.2667553,0.532989 4.1482376,1.60336 0.878554,1.065979 1.319295,2.417487 1.319295,4.051596 v 44.687627 c 0,1.632645 -0.456848,2.984154 -1.366151,4.051596 -0.9107673,1.068907 -2.2783823,1.60336 -4.1013816,1.60336 z m 5.65642132,10.55875 c 2.701552,0 5.1512523,-0.393885 7.3520293,-1.178726 2.199312,-0.786306 4.085274,-1.869855 5.659349,-3.250648 1.568218,-1.385186 2.779158,-3.082259 3.626962,-5.092682 0.849268,-2.011888 1.273903,-4.240486 1.273903,-6.69165 v -44.687627 c 0,-2.765979 -0.552025,-5.028254 -1.650217,-6.786826 -1.099656,-1.7615 -2.625411,-3.175971 -4.572871,-4.241949 1.94746,-1.070371 3.473215,-2.468736 4.572871,-4.195093 1.098192,-1.729287 1.650217,-3.94617 1.650217,-6.647722 v -47.229575 c 0,-0.566667 -0.15814,-1.036693 -0.472955,-1.414471 -0.313351,-0.376314 -0.786305,-0.566667 -1.413007,-0.566667 h -5.278643 c -1.824462,0 -3.192078,0.518346 -4.102845,1.556504 -0.910767,1.036693 -1.36615,2.372094 -1.36615,4.006204 v 43.648005 c 0,1.697072 -0.424635,3.063223 -1.272439,4.101381 -0.8478043,1.036693 -2.2476333,1.556504 -4.1950936,1.556504 H 0.59761238 v -49.30589 c 0,-1.63411 -0.456848,-2.969511 -1.367615,-4.006204 -0.91223098,-1.038158 -2.27838198,-1.556504 -4.10138098,-1.556504 h -5.2786424 c -0.62963,0 -1.099656,0.190353 -1.414471,0.566667 -0.314815,0.377778 -0.470027,0.847804 -0.470027,1.414471 V 46.129638 c 0,0.565203 0.155212,1.036693 0.470027,1.414471 0.314815,0.376314 0.784841,0.565203 1.414471,0.565203 z" /></g><g
           transform="translate(341.2773,229.8325)"
           id="g4024"><path
             id="path4026"
             style="fill:#0b3746;fill-opacity:1;fill-rule:nonzero;stroke:none;stroke-width:1.46425593"
             d="m 9.8448791,42.325246 c 0.5666669,0 1.0366929,-0.15814 1.4159349,-0.471491 0.376314,-0.316279 0.565203,-0.786305 0.565203,-1.414471 v -3.205256 c 0,-1.635574 -0.440741,-2.954869 -1.320759,-3.960812 -0.8800169,-1.00448 -2.0426369,-1.50672 -3.4893219,-1.50672 h -11.595442 v -50.812609 h 12.539888 c 0.566667,0 1.036693,-0.158139 1.414471,-0.47149 0.376314,-0.314815 0.565203,-0.786306 0.565203,-1.414471 v -3.206721 c 0,-1.634109 -0.440741,-2.953404 -1.320759,-3.957884 -0.878554,-1.005943 -2.041173,-1.508183 -3.487858,-1.508183 h -9.710945 v -49.494779 h 11.595442 c 1.446685,0 2.609305,-0.503704 3.4893219,-1.508184 0.880018,-1.005943 1.320759,-2.325238 1.320759,-3.957883 v -3.206721 c 0,-0.628166 -0.188889,-1.099656 -0.565203,-1.413007 -0.379242,-0.314815 -0.849268,-0.472954 -1.4159349,-0.472954 H -15.32568 c -0.628166,0 -1.099657,0.190353 -1.413007,0.566667 -0.31628,0.377778 -0.472955,0.847804 -0.472955,1.414471 V 40.345572 c 0,0.565203 0.156675,1.036693 0.472955,1.414471 0.31335,0.376314 0.784841,0.565203 1.413007,0.565203 z" /></g><g
           transform="translate(400.124,139.6957)"
           id="g4028"><path
             id="path4030"
             style="fill:#e2803d;fill-opacity:1;fill-rule:nonzero;stroke:none;stroke-width:1.46425593"
             d="m 8.6648066,0.4787045 c -0.56667,0 -1.00594,0.19035 -1.31929,0.56666 -0.31628,0.37778 -0.50517,0.81413 -0.56667,1.3193 L -0.38576339,103.23725 -7.5503634,2.3646645 c -0.063,-0.50517 -0.25185,-0.94152 -0.5652,-1.3193 -0.31628,-0.37631 -0.75702,-0.56666 -1.3193,-0.56666 H -20.090253 c -0.56374,0 -1.00448,0.19035 -1.31929,0.56666 -0.31482,0.37778 -0.50371,0.81413 -0.5652,1.3193 L -33.287593,130.10489 c -0.063,0.5652 0.10982,1.09819 0.51835,1.60189 0.40853,0.50224 1.0528,0.75556 1.93135,0.75556 h 4.62266 c 1.56822,0 2.87433,-0.45831 3.91103,-1.36762 1.03816,-0.91223 1.61654,-2.02653 1.74393,-3.34582 l 5.5627,-95.878015 8.0124096,94.933565 c 0.12446,1.69854 0.84927,2.90802 2.16857,3.62989 1.31929,0.72188 2.76598,1.08502 4.33712001,1.08502 h 0.18743 c 1.57113999,0 3.01635999,-0.37925 4.33858999,-1.13187 1.31783,-0.75409 2.03971,-1.94893 2.1671,-3.58304 l 7.9172304,-94.933565 5.65788,95.878015 c 0.12593,1.31929 0.70724,2.43359 1.74393,3.34582 1.03669,0.90931 2.33988,1.36762 3.91249,1.36762 h 4.61827 c 0.88001,0 1.52282,-0.25332 1.93428,-0.75556 0.40706,-0.5037 0.57984,-1.03669 0.51688,-1.60189 L 21.203227,2.3646645 c -0.0644,-0.50517 -0.25185,-0.94152 -0.56666,-1.3193 -0.31482,-0.37631 -0.7541,-0.56666 -1.32076,-0.56666 z" /></g><g
           transform="translate(465.5361,229.8325)"
           id="g4032"><path
             id="path4034"
             style="fill:#e2803d;fill-opacity:1;fill-rule:nonzero;stroke:none;stroke-width:1.46425593"
             d="m 9.0327533,42.325245 c 0.56521,0 1.0366997,-0.15814 1.4144797,-0.47149 0.37777,-0.31628 0.5652,-0.7863 0.5652,-1.41447 v -3.20526 c 0,-1.63557 -0.43928,-2.95487 -1.3207597,-3.96081 -0.88002,-1.00448 -2.04117,-1.50672 -3.48786,-1.50672 h -11.59544 v -50.81261 h 12.53842 c 0.56667,0 1.03816,-0.15814 1.41447,-0.47149 0.37778,-0.31481 0.56521,-0.7863 0.56521,-1.41447 v -3.20672 c 0,-1.63411 -0.43928,-2.9534 -1.3193,-3.95788 -0.88002,-1.00595 -2.04263,-1.50819 -3.48785,-1.50819 h -9.71095 v -49.49478 h 11.59544 c 1.44669,0 2.60784,-0.5037 3.48786,-1.50818 0.8814797,-1.00594 1.3207597,-2.32524 1.3207597,-3.95788 v -3.20672 c 0,-0.62817 -0.18743,-1.09966 -0.5652,-1.41301 -0.37778,-0.31482 -0.8492697,-0.47295 -1.4144797,-0.47295 H -16.137797 c -0.62963,0 -1.09966,0.19035 -1.41448,0.56666 -0.31627,0.37778 -0.47149,0.84781 -0.47149,1.41447 v 128.02283 c 0,0.5652 0.15522,1.03669 0.47149,1.41447 0.31482,0.37631 0.78485,0.5652 1.41448,0.5652 z" /></g><g
           transform="translate(513.3721,178.1332)"
           id="g4036"><path
             id="path4038"
             style="fill:#e2803d;fill-opacity:1;fill-rule:nonzero;stroke:none;stroke-width:1.46425593"
             d="m 1.2409026,18.323545 c 0,1.63264 -0.43927999,2.98415 -1.31782999,4.05306 -0.88295,1.06744 -2.23299001,1.60189 -4.05599001,1.60189 h -5.56124 v -51.37927 h 5.46899 c 1.8845,0 3.26529001,0.51981 4.14824001,1.5565 0.87855,1.03816 1.31782999,2.40577 1.31782999,4.10138 z m 0,59.486856 c 0,1.695608 -0.43927999,3.061759 -1.31782999,4.099916 -0.88295,1.036693 -2.26374001,1.55504 -4.14824001,1.55504 h -5.46899 V 34.537245 h 5.46899 c 1.8845,0 3.26529001,0.53445 4.14824001,1.60336 0.87855,1.06744 1.31782999,2.41749 1.31782999,4.05453 z m -5.27864,16.213706 c 2.70009,0 5.15125,-0.377779 7.35203,-1.130406 2.19931,-0.755556 4.086743,-1.839105 5.657883,-3.252112 1.5696804,-1.414472 2.7820904,-3.129115 3.6298904,-5.139539 0.84927,-2.011887 1.27244,-4.240485 1.27244,-6.691649 V 40.195135 c 0,-2.76745 -0.55202,-5.02972 -1.65022,-6.78829 -1.09965,-1.76004 -2.6239404,-3.17451 -4.5714004,-4.24342 1.94746,-1.06891 3.4717504,-2.46727 4.5714004,-4.19363 1.0982,-1.73075 1.65022,-3.9447 1.65022,-6.64625 v -40.06644 c 0,-5.02972 -1.63557,-8.98907 -4.9023304,-11.87951 -3.268223,-2.89044 -7.668313,-4.33712 -13.197343,-4.33712 H -20.441797 c -0.62817,0 -1.09966,0.19035 -1.41301,0.56666 -0.31628,0.37778 -0.47149,0.84781 -0.47149,1.41447 V 92.045897 c 0,0.563738 0.15521,1.036693 0.47149,1.413007 0.31335,0.376314 0.78484,0.565203 1.41301,0.565203 z" /></g><g
           transform="translate(283.2764,262.8432)"
           id="g4040" /><g
           transform="translate(282.855,255.0903)"
           id="g4044" /><g
           transform="translate(287.9854,254.9936)"
           id="g4048" /><g
           transform="translate(345.0352,356.2993)"
           id="g4052" /></g></g><path
       id="path4042"
       style="fill:#e2803d;fill-opacity:1;fill-rule:nonzero;stroke:none"
       d="m 566.58587,387.912 c -37.943,19.372 -37.943,41.786 -37.943,41.786 v 48.509 c 23.13,-1.766 37.943,7.003 37.943,7.003 z" /><path
       id="path4046"
       style="fill:#e2803d;fill-opacity:1;fill-rule:nonzero;stroke:none"
       d="m 566.16447,380.1591 c 0.102,-0.051 0.067,-0.209 -0.047,-0.207 -37.687,0.535 -67.901,31.255 -67.901,69.071 0,38.15 30.927,69.076 69.077,69.076 0,0 10.074,-0.396 12.663,-1.133 2.591,-0.738 6.044,-26.785 6.044,-26.785 l -3.508,-2.019 c -9.764,2.239 -15.897,5.761 -15.897,5.761 0,0 -26.839,-12.952 -46.267,-5.613 v -58.283 c 0,0 -1.574,-26.391 45.836,-49.868" /><path
       id="path4050"
       style="fill:#0b3746;fill-opacity:1;fill-rule:nonzero;stroke:none"
       d="m 571.29487,380.0624 c -0.116,-0.007 -0.171,0.142 -0.078,0.212 13.947,10.519 22.749,27.231 22.97,46.048 0.313,26.882 -8.352,51.189 -13.798,68.419 -4.212,13.326 -5.499,22.944 -5.499,22.944 -0.341,1.813 -0.52,3.683 -0.52,5.595 0,17.725 15.347,31.867 33.479,29.861 13.489,-1.492 24.512,-12.204 26.339,-25.652 0.963,-7.102 -0.557,-13.809 -3.816,-19.374 -2.673,-4.565 -5.755,-8.227 -12.648,-11.757 -0.166,-0.085 -0.332,0.112 -0.208,0.251 8.473,9.522 8.708,22.677 8.708,22.677 0,10.793 -9.373,19.396 -20.423,18.114 -8.048,-0.934 -14.654,-7.294 -15.849,-15.308 -0.642,-4.318 0.229,-8.404 2.163,-11.807 0,0 4.159,-7.653 11.875,-15.544 14.326,-14.651 35.895,-37.075 30.486,-61.851 -6.393,-29.276 -32.288,-51.114 -63.181,-52.828" /><path
       id="path4054"
       style="fill:#e2803d;fill-opacity:1;fill-rule:nonzero;stroke:none"
       d="m 628.34467,481.3681 c 0,0 -4.927,9.46 -10.712,14.958 0,0 8.464,3.891 12.736,11.789 0,0 3.837,-13.542 -2.024,-26.747" /></g></svg>