<?xml version="1.0" encoding="UTF-8" standalone="no"?>
<svg
   xmlns:dc="http://purl.org/dc/elements/1.1/"
   xmlns:cc="http://creativecommons.org/ns#"
   xmlns:rdf="http://www.w3.org/1999/02/22-rdf-syntax-ns#"
   xmlns:svg="http://www.w3.org/2000/svg"
   xmlns="http://www.w3.org/2000/svg"
   viewBox="0 0 200 250"
   height="250"
   width="200"
   xml:space="preserve"
   id="svg3718"
   version="1.1"><metadata
     id="metadata3724"><rdf:RDF><cc:Work
         rdf:about=""><dc:format>image/svg+xml</dc:format><dc:type
           rdf:resource="http://purl.org/dc/dcmitype/StillImage" /><dc:title></dc:title></cc:Work></rdf:RDF></metadata><defs
     id="defs3722"><clipPath
       id="clipPath3734"
       clipPathUnits="userSpaceOnUse"><path
         id="path3732"
         d="M 0,566.929 H 566.929 V 0 H 0 Z" /></clipPath></defs><g
     transform="matrix(1.3333333,0,0,-1.3333333,0,250)"
     id="g3726"><g
       transform="translate(-207.75001,-248.25001)"
       id="g3728"><g
         clip-path="url(#clipPath3734)"
         id="g3730"><g
           transform="translate(64.7588,198.7348)"
           id="g3736" /><g
           transform="translate(120.3193,229.8325)"
           id="g3740" /><g
           transform="translate(168.1558,175.3002)"
           id="g3744" /><g
           transform="translate(233.6968,149.7397)"
           id="g3748" /><g
           transform="translate(274.5142,222.6215)"
           id="g3752" /><g
           transform="translate(341.2773,229.8325)"
           id="g3756" /><g
           transform="translate(400.124,139.6957)"
           id="g3760" /><g
           transform="translate(465.5361,229.8325)"
           id="g3764" /><g
           transform="translate(513.3721,178.1332)"
           id="g3768" /><g
           transform="translate(283.2764,262.8432)"
           id="g3772"><path
             id="path3774"
             style="fill:#e2803d;fill-opacity:1;fill-rule:nonzero;stroke:none"
             d="M 0,0 C -37.943,19.372 -37.943,41.786 -37.943,41.786 V 90.295 C -14.813,88.529 0,97.298 0,97.298 Z" /></g><g
           transform="translate(282.855,255.0903)"
           id="g3776"><path
             id="path3778"
             style="fill:#e2803d;fill-opacity:1;fill-rule:nonzero;stroke:none"
             d="m 0,0 c 0.102,-0.051 0.067,-0.209 -0.047,-0.207 -37.687,0.535 -67.901,31.255 -67.901,69.071 0,38.15 30.927,69.076 69.077,69.076 0,0 10.074,-0.396 12.663,-1.133 2.591,-0.738 6.044,-26.785 6.044,-26.785 l -3.508,-2.019 c -9.764,2.239 -15.897,5.761 -15.897,5.761 0,0 -26.839,-12.952 -46.267,-5.613 V 49.868 C -45.836,49.868 -47.41,23.477 0,0" /></g><g
           transform="translate(287.9854,254.9936)"
           id="g3780"><path
             id="path3782"
             style="fill:#0b3746;fill-opacity:1;fill-rule:nonzero;stroke:none"
             d="m 0,0 c -0.116,-0.007 -0.171,0.142 -0.078,0.212 13.947,10.519 22.749,27.231 22.97,46.048 0.313,26.882 -8.352,51.189 -13.798,68.419 -4.212,13.326 -5.499,22.944 -5.499,22.944 -0.341,1.813 -0.52,3.683 -0.52,5.595 0,17.725 15.347,31.867 33.479,29.861 13.489,-1.492 24.512,-12.204 26.339,-25.652 0.963,-7.102 -0.557,-13.809 -3.816,-19.374 -2.673,-4.565 -5.755,-8.227 -12.648,-11.757 -0.166,-0.085 -0.332,0.112 -0.208,0.251 8.473,9.522 8.708,22.677 8.708,22.677 0,10.793 -9.373,19.396 -20.423,18.114 -8.048,-0.934 -14.654,-7.294 -15.849,-15.308 -0.642,-4.318 0.229,-8.404 2.163,-11.807 0,0 4.159,-7.653 11.875,-15.544 C 47.021,100.028 68.59,77.604 63.181,52.828 56.788,23.552 30.893,1.714 0,0" /></g><g
           transform="translate(345.0352,356.2993)"
           id="g3784"><path
             id="path3786"
             style="fill:#e2803d;fill-opacity:1;fill-rule:nonzero;stroke:none"
             d="m 0,0 c 0,0 -4.927,9.46 -10.712,14.958 0,0 8.464,3.891 12.736,11.789 C 2.024,26.747 5.861,13.205 0,0" /></g></g></g></g></svg>