<?xml version="1.0" encoding="UTF-8" standalone="no"?>
<!-- Created with Inkscape (http://www.inkscape.org/) -->

<svg
   xmlns:dc="http://purl.org/dc/elements/1.1/"
   xmlns:cc="http://creativecommons.org/ns#"
   xmlns:rdf="http://www.w3.org/1999/02/22-rdf-syntax-ns#"
   xmlns:svg="http://www.w3.org/2000/svg"
   xmlns="http://www.w3.org/2000/svg"
   xmlns:sodipodi="http://sodipodi.sourceforge.net/DTD/sodipodi-0.dtd"
   xmlns:inkscape="http://www.inkscape.org/namespaces/inkscape"
   version="1.1"
   id="svg2"
   xml:space="preserve"
   width="655"
   height="400"
   viewBox="0 0 655 400"
   sodipodi:docname="logo-large.svg"
   inkscape:version="0.92.2 5c3e80d, 2017-08-06"><metadata
     id="metadata8"><rdf:RDF><cc:Work
         rdf:about=""><dc:format>image/svg+xml</dc:format><dc:type
           rdf:resource="http://purl.org/dc/dcmitype/StillImage" /><dc:title></dc:title></cc:Work></rdf:RDF></metadata><defs
     id="defs6"><clipPath
       clipPathUnits="userSpaceOnUse"
       id="clipPath18"><path
         d="M 0,566.929 H 566.929 V 0 H 0 Z"
         id="path16"
         inkscape:connector-curvature="0" /></clipPath></defs><sodipodi:namedview
     pagecolor="#ffffff"
     bordercolor="#666666"
     borderopacity="1"
     objecttolerance="10"
     gridtolerance="10"
     guidetolerance="10"
     inkscape:pageopacity="0"
     inkscape:pageshadow="2"
     inkscape:window-width="895"
     inkscape:window-height="626"
     id="namedview4"
     showgrid="false"
     inkscape:zoom="0.50373353"
     inkscape:cx="377.95267"
     inkscape:cy="377.95267"
     inkscape:window-x="0"
     inkscape:window-y="0"
     inkscape:window-maximized="0"
     inkscape:current-layer="g10" /><g
     id="g10"
     inkscape:groupmode="layer"
     inkscape:label="logo-large"
     transform="matrix(1.3333333,0,0,-1.3333333,0,399.99999)"><g
       id="g12"
       transform="translate(-36.033623,-134.52553)"><g
         id="g14"
         clip-path="url(#clipPath18)"><g
           id="g20"
           transform="translate(64.7588,198.7348)"><path
             d="m 0,0 c -1.246,0 -2.179,0.354 -2.801,1.062 -0.623,0.709 -0.933,1.621 -0.933,2.737 v 17.255 c 0,1.159 -0.312,2.092 -0.933,2.8 -0.623,0.708 -1.557,1.062 -2.801,1.062 -1.288,0 -2.233,-0.354 -2.833,-1.062 -0.601,-0.708 -0.902,-1.641 -0.902,-2.8 0,-3.907 0.226,-7.426 0.677,-10.559 0.45,-3.134 1.062,-6.031 1.835,-8.691 0.772,-2.662 1.642,-5.173 2.608,-7.533 0.965,-2.362 1.94,-4.711 2.928,-7.05 0.988,-2.34 1.964,-4.733 2.929,-7.18 0.966,-2.446 1.836,-5.107 2.608,-7.982 0.772,-2.877 1.385,-6.032 1.835,-9.465 0.451,-3.435 0.677,-7.297 0.677,-11.589 0,-1.717 -0.29,-3.251 -0.87,-4.604 -0.579,-1.351 -1.417,-2.51 -2.51,-3.476 -1.096,-0.966 -2.405,-1.706 -3.929,-2.221 -1.523,-0.516 -3.208,-0.772 -5.053,-0.772 -3.907,0 -6.944,0.988 -9.111,2.961 -2.168,1.974 -3.251,4.677 -3.251,8.112 v 19.701 c 0,0.387 0.106,0.708 0.322,0.966 0.215,0.258 0.536,0.387 0.966,0.387 h 3.605 c 1.245,0 2.178,-0.355 2.801,-1.064 0.621,-0.708 0.933,-1.62 0.933,-2.735 v -17.255 c 0,-1.159 0.311,-2.093 0.934,-2.801 0.622,-0.708 1.556,-1.062 2.801,-1.062 1.287,0 2.231,0.354 2.833,1.062 0.6,0.708 0.901,1.642 0.901,2.801 0,5.494 -0.398,10.302 -1.192,14.422 -0.794,4.12 -1.792,7.864 -2.993,11.234 -1.203,3.369 -2.49,6.568 -3.863,9.594 -1.374,3.025 -2.661,6.213 -3.864,9.56 -1.201,3.349 -2.199,7.039 -2.993,11.074 -0.794,4.035 -1.191,8.757 -1.191,14.165 0,1.717 0.29,3.252 0.869,4.603 0.58,1.352 1.417,2.511 2.511,3.477 1.095,0.966 2.392,1.706 3.895,2.22 1.502,0.516 3.197,0.774 5.087,0.774 3.905,0 6.942,-0.988 9.11,-2.962 2.167,-1.976 3.252,-4.679 3.252,-8.112 V 1.353 C 4.894,0.966 4.786,0.645 4.571,0.387 4.356,0.129 4.034,0 3.605,0 Z"
             style="fill:#0b3746;fill-opacity:1;fill-rule:nonzero;stroke:none"
             id="path22"
             inkscape:connector-curvature="0" /></g><g
           id="g24"
           transform="translate(120.3193,229.8325)"><path
             d="m 0,0 c 0.387,0 0.708,-0.108 0.967,-0.322 0.257,-0.216 0.386,-0.537 0.386,-0.966 v -2.189 c 0,-1.117 -0.301,-2.018 -0.902,-2.705 -0.601,-0.686 -1.395,-1.029 -2.382,-1.029 H -9.85 v -34.702 h 8.563 c 0.387,0 0.708,-0.108 0.966,-0.322 0.257,-0.215 0.386,-0.537 0.386,-0.966 v -2.19 c 0,-1.116 -0.301,-2.017 -0.901,-2.703 -0.601,-0.687 -1.395,-1.03 -2.382,-1.03 H -9.85 v -33.802 h 7.919 c 0.987,0 1.781,-0.344 2.382,-1.03 0.601,-0.687 0.902,-1.588 0.902,-2.703 v -2.19 c 0,-0.429 -0.129,-0.751 -0.386,-0.965 C 0.708,-90.029 0.387,-90.137 0,-90.137 h -17.19 c -0.429,0 -0.751,0.13 -0.965,0.387 -0.216,0.258 -0.322,0.579 -0.322,0.966 v 87.432 c 0,0.386 0.106,0.708 0.322,0.966 0.214,0.257 0.536,0.386 0.965,0.386 z"
             style="fill:#0b3746;fill-opacity:1;fill-rule:nonzero;stroke:none"
             id="path26"
             inkscape:connector-curvature="0" /></g><g
           id="g28"
           transform="translate(168.1558,175.3002)"><path
             d="M 0,0 C 0,1.115 0.3,2.027 0.901,2.735 1.502,3.444 2.403,3.82 3.606,3.862 H 7.34 C 7.768,3.862 8.091,3.734 8.306,3.476 8.52,3.219 8.628,2.896 8.628,2.51 v -28.071 c 0,-3.434 -1.084,-6.137 -3.252,-8.112 -2.167,-1.973 -5.205,-2.961 -9.109,-2.961 -1.89,0 -3.585,0.257 -5.087,0.773 -1.503,0.514 -2.8,1.255 -3.895,2.22 -1.095,0.966 -1.931,2.125 -2.512,3.477 -0.579,1.352 -0.868,2.887 -0.868,4.603 v 70.049 c 0,3.434 1.083,6.137 3.251,8.113 2.167,1.973 5.204,2.962 9.111,2.962 1.844,0 3.529,-0.258 5.053,-0.774 1.524,-0.515 2.833,-1.255 3.928,-2.221 1.094,-0.965 1.932,-2.125 2.51,-3.476 0.58,-1.352 0.87,-2.887 0.87,-4.604 V 15.646 C 8.628,15.259 8.52,14.937 8.306,14.68 8.091,14.421 7.768,14.293 7.34,14.293 H 3.734 c -1.245,0 -2.179,0.353 -2.8,1.061 C 0.311,16.062 0,16.975 0,18.092 v 26.396 c 0,1.159 -0.3,2.093 -0.9,2.801 -0.603,0.708 -1.546,1.062 -2.833,1.062 -1.246,0 -2.18,-0.354 -2.801,-1.062 -0.623,-0.708 -0.934,-1.642 -0.934,-2.801 v -70.049 c 0,-1.159 0.3,-2.092 0.902,-2.8 0.6,-0.708 1.544,-1.063 2.833,-1.063 1.244,0 2.178,0.355 2.8,1.063 0.621,0.708 0.933,1.641 0.933,2.8 z"
             style="fill:#0b3746;fill-opacity:1;fill-rule:nonzero;stroke:none"
             id="path30"
             inkscape:connector-curvature="0" /></g><g
           id="g32"
           transform="translate(233.6968,149.7397)"><path
             d="m 0,0 c 0,-3.435 -1.084,-6.138 -3.251,-8.112 -2.168,-1.973 -5.206,-2.961 -9.11,-2.961 -1.89,0 -3.585,0.257 -5.087,0.772 -1.503,0.515 -2.8,1.255 -3.895,2.221 -1.095,0.966 -1.931,2.125 -2.511,3.476 -0.58,1.353 -0.869,2.887 -0.869,4.604 v 78.741 c 0,0.386 0.106,0.708 0.322,0.966 0.214,0.257 0.536,0.386 0.965,0.386 h 3.605 c 1.117,0 2.018,-0.301 2.706,-0.903 0.685,-0.6 1.029,-1.394 1.029,-2.381 V 0 c 0,-1.159 0.3,-2.093 0.902,-2.801 0.6,-0.708 1.545,-1.062 2.833,-1.062 1.244,0 2.178,0.354 2.8,1.062 0.621,0.708 0.933,1.642 0.933,2.801 v 76.809 c 0,0.987 0.344,1.781 1.031,2.381 0.686,0.602 1.587,0.903 2.703,0.903 h 3.606 c 0.428,0 0.751,-0.129 0.966,-0.386 C -0.108,79.449 0,79.127 0,78.741 Z"
             style="fill:#0b3746;fill-opacity:1;fill-rule:nonzero;stroke:none"
             id="path34"
             inkscape:connector-curvature="0" /></g><g
           id="g36"
           transform="translate(274.5142,222.6215)"><path
             d="m 0,0 v -38.243 h 3.734 c 1.287,0 2.231,0.364 2.833,1.095 0.6,0.728 0.901,1.651 0.901,2.767 v 30.519 c 0,1.115 -0.312,2.038 -0.933,2.767 C 5.913,-0.365 4.979,0 3.734,0 Z m 3.863,7.211 c 1.845,0 3.518,-0.269 5.021,-0.805 1.502,-0.537 2.79,-1.277 3.865,-2.22 1.071,-0.946 1.898,-2.105 2.477,-3.478 0.58,-1.374 0.87,-2.896 0.87,-4.57 v -30.519 c 0,-1.889 -0.377,-3.434 -1.127,-4.635 -0.751,-1.203 -1.793,-2.169 -3.123,-2.897 1.33,-0.731 2.372,-1.686 3.123,-2.865 0.75,-1.181 1.127,-2.695 1.127,-4.54 v -32.255 c 0,-0.387 -0.108,-0.708 -0.323,-0.966 -0.214,-0.257 -0.537,-0.387 -0.965,-0.387 h -3.605 c -1.246,0 -2.18,0.354 -2.802,1.063 -0.622,0.708 -0.933,1.62 -0.933,2.736 v 29.809 c 0,1.159 -0.29,2.092 -0.869,2.801 -0.579,0.708 -1.535,1.063 -2.865,1.063 H 0 v -33.673 c 0,-1.116 -0.312,-2.028 -0.934,-2.736 -0.623,-0.709 -1.556,-1.063 -2.801,-1.063 H -7.34 c -0.43,0 -0.751,0.13 -0.966,0.387 -0.215,0.258 -0.321,0.579 -0.321,0.966 V 5.859 c 0,0.386 0.106,0.708 0.321,0.966 0.215,0.257 0.536,0.386 0.966,0.386 z"
             style="fill:#0b3746;fill-opacity:1;fill-rule:nonzero;stroke:none"
             id="path38"
             inkscape:connector-curvature="0" /></g><g
           id="g40"
           transform="translate(341.2773,229.8325)"><path
             d="m 0,0 c 0.387,0 0.708,-0.108 0.967,-0.322 0.257,-0.216 0.386,-0.537 0.386,-0.966 v -2.189 c 0,-1.117 -0.301,-2.018 -0.902,-2.705 -0.601,-0.686 -1.395,-1.029 -2.383,-1.029 h -7.919 v -34.702 h 8.564 c 0.387,0 0.708,-0.108 0.966,-0.322 0.257,-0.215 0.386,-0.537 0.386,-0.966 v -2.19 c 0,-1.116 -0.301,-2.017 -0.902,-2.703 -0.6,-0.687 -1.394,-1.03 -2.382,-1.03 h -6.632 v -33.802 h 7.919 c 0.988,0 1.782,-0.344 2.383,-1.03 0.601,-0.687 0.902,-1.588 0.902,-2.703 v -2.19 c 0,-0.429 -0.129,-0.751 -0.386,-0.965 C 0.708,-90.029 0.387,-90.137 0,-90.137 h -17.19 c -0.429,0 -0.751,0.13 -0.965,0.387 -0.216,0.258 -0.323,0.579 -0.323,0.966 v 87.432 c 0,0.386 0.107,0.708 0.323,0.966 0.214,0.257 0.536,0.386 0.965,0.386 z"
             style="fill:#0b3746;fill-opacity:1;fill-rule:nonzero;stroke:none"
             id="path42"
             inkscape:connector-curvature="0" /></g><g
           id="g44"
           transform="translate(400.124,139.6957)"><path
             d="m 0,0 c -0.387,0 -0.687,0.13 -0.901,0.387 -0.216,0.258 -0.345,0.556 -0.387,0.901 l -4.893,68.89 -4.893,-68.89 C -11.117,0.943 -11.246,0.645 -11.46,0.387 -11.676,0.13 -11.977,0 -12.361,0 h -7.277 c -0.385,0 -0.686,0.13 -0.901,0.387 -0.215,0.258 -0.344,0.556 -0.386,0.901 l -7.726,87.239 c -0.043,0.386 0.075,0.75 0.354,1.094 0.279,0.343 0.719,0.516 1.319,0.516 h 3.157 c 1.071,0 1.963,-0.313 2.671,-0.934 0.709,-0.623 1.104,-1.384 1.191,-2.285 l 3.799,-65.479 5.472,64.834 c 0.085,1.16 0.58,1.986 1.481,2.479 0.901,0.493 1.889,0.741 2.962,0.741 h 0.128 c 1.073,0 2.06,-0.259 2.963,-0.773 0.9,-0.515 1.393,-1.331 1.48,-2.447 L 3.733,21.439 7.597,86.918 c 0.086,0.901 0.483,1.662 1.191,2.285 0.708,0.621 1.598,0.934 2.672,0.934 h 3.154 c 0.601,0 1.04,-0.173 1.321,-0.516 0.278,-0.344 0.396,-0.708 0.353,-1.094 L 8.563,1.288 C 8.519,0.943 8.391,0.645 8.176,0.387 7.961,0.13 7.661,0 7.274,0 Z"
             style="fill:#e2803d;fill-opacity:1;fill-rule:nonzero;stroke:none"
             id="path46"
             inkscape:connector-curvature="0" /></g><g
           id="g48"
           transform="translate(465.5361,229.8325)"><path
             d="m 0,0 c 0.386,0 0.708,-0.108 0.966,-0.322 0.258,-0.216 0.386,-0.537 0.386,-0.966 v -2.189 c 0,-1.117 -0.3,-2.018 -0.902,-2.705 -0.601,-0.686 -1.394,-1.029 -2.382,-1.029 h -7.919 v -34.702 h 8.563 c 0.387,0 0.709,-0.108 0.966,-0.322 0.258,-0.215 0.386,-0.537 0.386,-0.966 v -2.19 c 0,-1.116 -0.3,-2.017 -0.901,-2.703 -0.601,-0.687 -1.395,-1.03 -2.382,-1.03 h -6.632 v -33.802 h 7.919 c 0.988,0 1.781,-0.344 2.382,-1.03 0.602,-0.687 0.902,-1.588 0.902,-2.703 v -2.19 c 0,-0.429 -0.128,-0.751 -0.386,-0.965 C 0.708,-90.029 0.386,-90.137 0,-90.137 h -17.19 c -0.43,0 -0.751,0.13 -0.966,0.387 -0.216,0.258 -0.322,0.579 -0.322,0.966 v 87.432 c 0,0.386 0.106,0.708 0.322,0.966 C -17.941,-0.129 -17.62,0 -17.19,0 Z"
             style="fill:#e2803d;fill-opacity:1;fill-rule:nonzero;stroke:none"
             id="path50"
             inkscape:connector-curvature="0" /></g><g
           id="g52"
           transform="translate(513.3721,178.1332)"><path
             d="m 0,0 c 0,1.115 -0.3,2.038 -0.9,2.768 -0.603,0.729 -1.525,1.094 -2.77,1.094 h -3.798 v -35.089 h 3.735 c 1.287,0 2.23,0.355 2.833,1.063 0.6,0.709 0.9,1.643 0.9,2.801 z m 0,40.626 c 0,1.158 -0.3,2.091 -0.9,2.8 -0.603,0.708 -1.546,1.062 -2.833,1.062 H -7.468 V 11.073 h 3.735 c 1.287,0 2.23,0.365 2.833,1.095 0.6,0.729 0.9,1.651 0.9,2.769 z m -3.605,11.073 c 1.844,0 3.518,-0.258 5.021,-0.772 1.502,-0.516 2.791,-1.256 3.864,-2.221 1.072,-0.966 1.9,-2.137 2.479,-3.51 0.58,-1.374 0.869,-2.896 0.869,-4.57 V 14.937 c 0,-1.89 -0.377,-3.435 -1.127,-4.636 C 6.75,9.099 5.709,8.133 4.379,7.403 5.709,6.673 6.75,5.718 7.501,4.539 8.251,3.357 8.628,1.845 8.628,0 v -27.363 c 0,-3.435 -1.117,-6.139 -3.348,-8.113 -2.232,-1.974 -5.237,-2.962 -9.013,-2.962 h -11.075 c -0.429,0 -0.751,0.13 -0.965,0.387 -0.216,0.258 -0.322,0.579 -0.322,0.966 v 87.433 c 0,0.385 0.106,0.708 0.322,0.965 0.214,0.257 0.536,0.386 0.965,0.386 z"
             style="fill:#e2803d;fill-opacity:1;fill-rule:nonzero;stroke:none"
             id="path54"
             inkscape:connector-curvature="0" /></g><g
           id="g56"
           transform="translate(283.2764,262.8432)"><path
             d="M 0,0 C -37.943,19.372 -37.943,41.786 -37.943,41.786 V 90.295 C -14.813,88.529 0,97.298 0,97.298 Z"
             style="fill:#e2803d;fill-opacity:1;fill-rule:nonzero;stroke:none"
             id="path58"
             inkscape:connector-curvature="0" /></g><g
           id="g60"
           transform="translate(282.855,255.0903)"><path
             d="m 0,0 c 0.102,-0.051 0.067,-0.209 -0.047,-0.207 -37.687,0.535 -67.901,31.255 -67.901,69.071 0,38.15 30.927,69.076 69.077,69.076 0,0 10.074,-0.396 12.663,-1.133 2.591,-0.738 6.044,-26.785 6.044,-26.785 l -3.508,-2.019 c -9.764,2.239 -15.897,5.761 -15.897,5.761 0,0 -26.839,-12.952 -46.267,-5.613 V 49.868 C -45.836,49.868 -47.41,23.477 0,0"
             style="fill:#e2803d;fill-opacity:1;fill-rule:nonzero;stroke:none"
             id="path62"
             inkscape:connector-curvature="0" /></g><g
           id="g64"
           transform="translate(287.9854,254.9936)"><path
             d="m 0,0 c -0.116,-0.007 -0.171,0.142 -0.078,0.212 13.947,10.519 22.749,27.231 22.97,46.048 0.313,26.882 -8.352,51.189 -13.798,68.419 -4.212,13.326 -5.499,22.944 -5.499,22.944 -0.341,1.813 -0.52,3.683 -0.52,5.595 0,17.725 15.347,31.867 33.479,29.861 13.489,-1.492 24.512,-12.204 26.339,-25.652 0.963,-7.102 -0.557,-13.809 -3.816,-19.374 -2.673,-4.565 -5.755,-8.227 -12.648,-11.757 -0.166,-0.085 -0.332,0.112 -0.208,0.251 8.473,9.522 8.708,22.677 8.708,22.677 0,10.793 -9.373,19.396 -20.423,18.114 -8.048,-0.934 -14.654,-7.294 -15.849,-15.308 -0.642,-4.318 0.229,-8.404 2.163,-11.807 0,0 4.159,-7.653 11.875,-15.544 C 47.021,100.028 68.59,77.604 63.181,52.828 56.788,23.552 30.893,1.714 0,0"
             style="fill:#0b3746;fill-opacity:1;fill-rule:nonzero;stroke:none"
             id="path66"
             inkscape:connector-curvature="0" /></g><g
           id="g68"
           transform="translate(345.0352,356.2993)"><path
             d="m 0,0 c 0,0 -4.927,9.46 -10.712,14.958 0,0 8.464,3.891 12.736,11.789 C 2.024,26.747 5.861,13.205 0,0"
             style="fill:#e2803d;fill-opacity:1;fill-rule:nonzero;stroke:none"
             id="path70"
             inkscape:connector-curvature="0" /></g></g></g></g></svg>